<svg width="20" height="18" viewBox="0 0 20 18" fill="none" xmlns="http://www.w3.org/2000/svg">
<path d="M19.25 6.14993C16.94 2.51993 13.56 0.429932 10 0.429932C8.22 0.429932 6.49 0.949932 4.91 1.91993C3.33 2.89993 1.91 4.32993 0.75 6.14993C-0.25 7.71993 -0.25 10.2699 0.75 11.8399C3.06 15.4799 6.44 17.5599 10 17.5599C11.78 17.5599 13.51 17.0399 15.09 16.0699C16.67 15.0899 18.09 13.6599 19.25 11.8399C20.25 10.2799 20.25 7.71993 19.25 6.14993ZM10 13.0399C7.76 13.0399 5.96 11.2299 5.96 8.99993C5.96 6.76993 7.76 4.95993 10 4.95993C12.24 4.95993 14.04 6.76993 14.04 8.99993C14.04 11.2299 12.24 13.0399 10 13.0399Z" fill="#23776E"/>
<path d="M9.99999 6.13989C8.42999 6.13989 7.14999 7.41989 7.14999 8.99989C7.14999 10.5699 8.42999 11.8499 9.99999 11.8499C11.57 11.8499 12.86 10.5699 12.86 8.99989C12.86 7.42989 11.57 6.13989 9.99999 6.13989Z" fill="#23776E"/>
</svg>
