<svg width="16" height="20" viewBox="0 0 16 20" fill="none" xmlns="http://www.w3.org/2000/svg">
<path d="M7.99866 0C5.37866 0 3.24866 2.13 3.24866 4.75C3.24866 7.32 5.25866 9.4 7.87866 9.49C7.95866 9.48 8.03866 9.48 8.09866 9.49C8.11866 9.49 8.12866 9.49 8.14866 9.49C8.15866 9.49 8.15866 9.49 8.16866 9.49C10.7287 9.4 12.7387 7.32 12.7487 4.75C12.7487 2.13 10.6187 0 7.99866 0Z" fill="#23776E"/>
<path d="M13.0787 12.15C10.2887 10.29 5.73866 10.29 2.92866 12.15C1.65866 13 0.958664 14.15 0.958664 15.38C0.958664 16.61 1.65866 17.75 2.91866 18.59C4.31866 19.53 6.15866 20 7.99866 20C9.83866 20 11.6787 19.53 13.0787 18.59C14.3387 17.74 15.0387 16.6 15.0387 15.36C15.0287 14.13 14.3387 12.99 13.0787 12.15Z" fill="#23776E"/>
</svg>
