<svg width="31" height="31" viewBox="0 0 31 31" fill="none" xmlns="http://www.w3.org/2000/svg">
<path d="M30.1227 4.35283V4.20363H29.9792C29.3511 3.592 28.485 3.2131 27.5296 3.2131H23.56V0.856462C23.56 0.383441 23.1672 0 22.6827 0C22.1982 0 21.8054 0.383441 21.8054 0.856462V3.2131H8.85174V0.856462C8.85174 0.383441 8.45897 0 7.97444 0C7.48991 0 7.09714 0.383441 7.09714 0.856462V3.2131H3.47045C1.55682 3.2131 0 4.73294 0 6.60112V27.612C0 29.4802 1.55682 31 3.47045 31H27.5299C29.4435 31 31.0003 29.4802 31.0003 27.612V6.60112C31 5.7389 30.668 4.95144 30.1227 4.35283ZM27.5296 29.2871H3.47045C2.52433 29.2871 1.75491 28.5356 1.75491 27.612V11.1655H29.2454V27.612C29.2454 28.5356 28.4757 29.2871 27.5296 29.2871Z" fill="#499189"/>
<path d="M10.7329 14.2151H6.05371V18.7831H10.7329V14.2151Z" fill="#499189"/>
<path d="M17.8686 14.2151H13.1895V18.7831H17.8686V14.2151Z" fill="#499189"/>
<path d="M25.0046 14.2151H20.3254V18.7831H25.0046V14.2151Z" fill="#499189"/>
<path d="M10.7329 21.2388H6.05371V25.8068H10.7329V21.2388Z" fill="#499189"/>
<path d="M17.8686 21.2388H13.1895V25.8068H17.8686V21.2388Z" fill="#499189"/>
</svg>
