<svg width="30" height="30" viewBox="0 0 30 30" fill="none" xmlns="http://www.w3.org/2000/svg">
<path d="M15 30C6.72931 30 0 23.2707 0 15C0 6.72931 6.72931 0 15 0C23.2707 0 30 6.72931 30 15C30 23.2707 23.2707 30 15 30ZM15 2.58621C8.15517 2.58621 2.58621 8.15517 2.58621 15C2.58621 21.8448 8.15517 27.4138 15 27.4138C21.8448 27.4138 27.4138 21.8448 27.4138 15C27.4138 8.15517 21.8448 2.58621 15 2.58621Z" fill="#499189"/>
<path d="M21.7448 14.7844H15.8344V6.68097C15.8344 6.112 15.3689 5.64648 14.7999 5.64648H14.5413C13.9724 5.64648 13.5068 6.112 13.5068 6.68097V15.8189V16.0775C13.5068 16.6465 13.9724 17.112 14.5413 17.112H14.7999H21.7448C22.3137 17.112 22.7793 16.6465 22.7793 16.0775V15.8189C22.7793 15.2499 22.3137 14.7844 21.7448 14.7844Z" fill="#499189"/>
</svg>
