<svg width="26" height="26" viewBox="0 0 26 26" fill="none" xmlns="http://www.w3.org/2000/svg">
<ellipse cx="10.8333" cy="18.4446" rx="7.58333" ry="3.62963" stroke="white" stroke-width="1.5" stroke-linejoin="round"/>
<ellipse cx="10.8333" cy="7.55562" rx="4.33333" ry="4.14815" stroke="white" stroke-width="1.5" stroke-linejoin="round"/>
<path fill-rule="evenodd" clip-rule="evenodd" d="M16.2793 10.9536C15.9411 11.4494 15.531 11.8961 15.0632 12.2802C15.4395 12.3932 15.8384 12.4538 16.2499 12.4538C18.4279 12.4538 20.2499 10.7557 20.2499 8.59269C20.2499 6.55899 18.6391 4.93621 16.6363 4.74951C16.9103 5.26778 17.1108 5.82772 17.2246 6.41676C18.1326 6.77974 18.7499 7.6335 18.7499 8.59269C18.7499 9.85731 17.6769 10.9387 16.2793 10.9536Z" fill="white"/>
<path fill-rule="evenodd" clip-rule="evenodd" d="M20.582 18.5386C20.5651 19.149 20.3843 19.7361 20.0642 20.2855C20.4426 20.1841 20.7975 20.0676 21.124 19.9374C21.7643 19.682 22.3329 19.3591 22.7537 18.9623C23.176 18.564 23.4999 18.0389 23.4999 17.4075C23.4999 16.776 23.176 16.2509 22.7537 15.8527C22.3329 15.4558 21.7643 15.133 21.124 14.8776C20.0428 14.4464 18.6509 14.1654 17.125 14.0872C18.163 14.6006 19.015 15.2386 19.6137 15.9619C19.9616 16.0526 20.2815 16.1565 20.5683 16.2709C21.1042 16.4847 21.4876 16.7205 21.7246 16.944C21.9601 17.1661 21.9999 17.323 21.9999 17.4075C21.9999 17.492 21.9601 17.6489 21.7246 17.871C21.4896 18.0926 21.1108 18.3263 20.582 18.5386Z" fill="white"/>
</svg>
