<svg width="720" height="316" viewBox="0 0 720 316" fill="none" xmlns="http://www.w3.org/2000/svg">
<path d="M833 109.355C812.733 110.147 792.42 106.02 772.326 101.972C708.068 89.0256 643.512 76.8014 578.5 74.8163C517.92 72.9646 456.617 80.1595 398.56 103.557C343.701 125.667 293.046 162.481 242.761 197.757C205.842 223.649 168.68 249.337 129.506 269.133C53.8462 307.359 -28.7055 322.479 -109.599 313.471C-109.733 313.456 -109.866 313.44 -110 313.424V-41H833V109.355Z" fill="#AFDADB"/>
<path d="M833 79.0291C812.733 79.6572 792.42 76.3675 772.326 73.1328C708.068 62.7928 643.512 53.0416 578.5 51.4557C517.92 49.9797 456.617 55.7189 398.56 74.3969C343.701 92.0463 293.046 121.441 242.761 149.596C205.842 170.268 168.68 190.775 129.506 206.58C53.8462 237.105 -28.7055 249.172 -109.599 241.981C-109.733 241.965 -109.866 241.957 -110 241.941V-41H833V79.0291Z" fill="#369A8F"/>
<path d="M832.992 54.1831C812.725 54.6846 792.412 52.0753 772.318 49.5051C708.06 41.3087 643.504 33.5746 578.492 32.313C517.912 31.1455 456.609 35.6982 398.552 50.5081C343.693 64.5031 293.038 87.815 242.753 110.14C205.834 126.532 168.672 142.792 129.498 155.329C53.8462 179.535 -28.7134 189.102 -109.599 183.398C-109.733 183.39 -109.866 183.374 -110 183.366V-41H833V54.1831H832.992Z" fill="#23776E"/>
</svg>
