<svg width="1440" height="1024" viewBox="0 0 1440 1024" fill="none" xmlns="http://www.w3.org/2000/svg">
<path d="M-879.48 156.688C-823.809 184.822 -774.245 224.398 -725.174 263.467C-568.252 388.404 -409.61 512.114 -236.764 612.828C-75.7037 706.681 98.7698 780.69 285.019 812.447C461.011 842.449 644.295 832.246 824.633 825.052C957.024 819.786 1089.81 815.351 1220.56 827.512C1473.09 851.017 1714.92 938.126 1921.7 1078.56C1922.04 1078.79 1922.38 1079.02 1922.73 1079.26L1473.62 1898.56L-1070 504.254L-879.48 156.688Z" fill="#F06767"/>
<path d="M-918.005 226.97C-862.543 255.485 -811.915 293.12 -761.811 330.303C-601.578 449.2 -439.794 567.178 -266.441 666.967C-104.904 759.95 67.7206 837.333 247.975 880.026C418.3 920.367 592.158 927.358 763.449 936.669C889.209 943.5 1015.42 951.073 1141.1 972.484C1383.84 1013.84 1621.79 1108.02 1830.88 1244.24C1831.22 1244.47 1831.57 1244.69 1831.91 1244.92L1473.62 1898.56L-1070 504.254L-918.005 226.97Z" fill="#BF4C4C"/>
<path d="M-491.47 573.78C-454.188 590.835 -420.017 614.068 -386.205 637.029C-278.054 710.409 -168.886 783.142 -52.2419 843.513C56.4585 899.752 172.347 945.349 292.886 967.822C406.785 989.054 522.628 988.163 636.787 988.891C720.603 989.42 804.724 990.429 888.671 1000.57C1050.78 1020.17 1210.38 1074.8 1351.26 1158.07C1351.49 1158.21 1351.72 1158.36 1351.96 1158.49L1121.46 1601.12L-589.27 761.553L-491.484 573.773L-491.47 573.78Z" fill="#A53838"/>
</svg>
