<svg width="47" height="47" viewBox="0 0 47 47" fill="none" xmlns="http://www.w3.org/2000/svg">
<path fill-rule="evenodd" clip-rule="evenodd" d="M18.4205 5.66084C19.1469 4.57123 20.3698 3.91675 21.6794 3.91675H25.3204C26.63 3.91675 27.8529 4.57123 28.5793 5.66084L30.3541 8.323H37.6978C38.509 8.323 39.1666 8.98058 39.1666 9.79175C39.1666 10.6029 38.509 11.2605 37.6978 11.2605H9.302C8.49083 11.2605 7.83325 10.6029 7.83325 9.79175C7.83325 8.98058 8.49083 8.323 9.302 8.323H16.6458L18.4205 5.66084ZM29.3749 43.0834H17.6249C13.2987 43.0834 9.79158 39.5763 9.79158 35.2501V13.7084H37.2083V35.2501C37.2083 39.5763 33.7012 43.0834 29.3749 43.0834ZM19.5833 20.073C20.3944 20.073 21.052 20.7306 21.052 21.5417V35.2501C21.052 36.0612 20.3944 36.7188 19.5833 36.7188C18.7721 36.7188 18.1145 36.0612 18.1145 35.2501L18.1145 21.5417C18.1145 20.7306 18.7721 20.073 19.5833 20.073ZM27.4166 20.073C28.2278 20.073 28.8853 20.7306 28.8853 21.5417V35.2501C28.8853 36.0612 28.2278 36.7188 27.4166 36.7188C26.6054 36.7188 25.9478 36.0612 25.9478 35.2501V21.5417C25.9478 20.7306 26.6054 20.073 27.4166 20.073Z" fill="#499189"/>
</svg>
