<svg width="24" height="24" viewBox="0 0 24 24" fill="none" xmlns="http://www.w3.org/2000/svg">
<path d="M2.4153 6.77435L2.84209 7.39107L2.84209 7.39107L2.4153 6.77435ZM9.33642 1.98462L8.90962 1.3679V1.3679L9.33642 1.98462ZM14.6637 1.98462L15.0905 1.3679V1.3679L14.6637 1.98462ZM21.5849 6.77435L21.1581 7.39107L21.5849 6.77435ZM2.05474 11.1471L1.53774 11.6904H1.53774L2.05474 11.1471ZM21.9454 11.1471L21.4284 10.6037L21.4284 10.6037L21.9454 11.1471ZM16.5288 22.0153H7.47137V23.5153H16.5288V22.0153ZM2.84209 7.39107L9.76322 2.60134L8.90962 1.3679L1.9885 6.15763L2.84209 7.39107ZM14.2369 2.60134L21.1581 7.39107L22.0117 6.15763L15.0905 1.3679L14.2369 2.60134ZM20.3075 13.1868V18.456H21.8075V13.1868H20.3075ZM3.69265 18.456V13.1868H2.19265V18.456H3.69265ZM3.69265 13.1868C3.69265 12.2105 3.28472 11.2822 2.57175 10.6037L1.53774 11.6904C1.9618 12.0939 2.19265 12.633 2.19265 13.1868H3.69265ZM21.4284 10.6037C20.7154 11.2822 20.3075 12.2105 20.3075 13.1868H21.8075C21.8075 12.633 22.0384 12.0939 22.4624 11.6904L21.4284 10.6037ZM9.76322 2.60134C11.0944 1.68009 12.9057 1.68009 14.2369 2.60134L15.0905 1.3679C13.2458 0.0912327 10.7544 0.0912325 8.90962 1.3679L9.76322 2.60134ZM7.47137 22.0153C5.34892 22.0153 3.69265 20.3871 3.69265 18.456H2.19265C2.19265 21.2848 4.59154 23.5153 7.47137 23.5153V22.0153ZM16.5288 23.5153C19.4086 23.5153 21.8075 21.2848 21.8075 18.456H20.3075C20.3075 20.3871 18.6512 22.0153 16.5288 22.0153V23.5153ZM21.1581 7.39107C22.2796 8.16724 22.3958 9.68324 21.4284 10.6037L22.4624 11.6904C24.1295 10.1041 23.9032 7.46663 22.0117 6.15763L21.1581 7.39107ZM1.9885 6.15763C0.0970045 7.46663 -0.129328 10.1041 1.53774 11.6904L2.57175 10.6037C1.6044 9.68324 1.72054 8.16724 2.84209 7.39107L1.9885 6.15763ZM13.4167 16.2839C13.4167 17.0608 12.7845 17.6944 12.0001 17.6944V19.1944C13.6089 19.1944 14.9167 17.8933 14.9167 16.2839H13.4167ZM12.0001 17.6944C11.2157 17.6944 10.5834 17.0608 10.5834 16.2839H9.08341C9.08341 17.8933 10.3913 19.1944 12.0001 19.1944V17.6944ZM10.5834 16.2839C10.5834 15.5069 11.2157 14.8734 12.0001 14.8734V13.3734C10.3913 13.3734 9.08341 14.6744 9.08341 16.2839H10.5834ZM12.0001 14.8734C12.7845 14.8734 13.4167 15.5069 13.4167 16.2839H14.9167C14.9167 14.6744 13.6089 13.3734 12.0001 13.3734V14.8734Z" fill="white"/>
</svg>
