<svg width="182" height="75" viewBox="0 0 182 75" fill="none" xmlns="http://www.w3.org/2000/svg">
<path d="M27.7922 3.66455H35.779V32.7508C35.779 35.9392 35.0327 38.7435 33.5401 41.1637C32.0619 43.5839 29.9809 45.4752 27.2971 46.8375C24.6133 48.1853 21.4775 48.8592 17.8895 48.8592C14.2872 48.8592 11.1442 48.1853 8.46038 46.8375C5.7766 45.4752 3.69559 43.5839 2.21735 41.1637C0.739118 38.7435 0 35.9392 0 32.7508V3.66455H7.98677V32.077C7.98677 33.932 8.38862 35.5841 9.19232 37.0334C10.0104 38.4826 11.1585 39.6203 12.6368 40.4463C14.115 41.2579 15.8659 41.6637 17.8895 41.6637C19.9131 41.6637 21.664 41.2579 23.1423 40.4463C24.6348 39.6203 25.783 38.4826 26.5867 37.0334C27.3904 35.5841 27.7922 33.932 27.7922 32.077V3.66455Z" fill="white"/>
<path d="M44.4601 48.1853V3.66455H60.9933C64.3803 3.66455 67.222 4.30222 69.5183 5.57755C71.8289 6.85288 73.5727 8.60647 74.7495 10.8383C75.9407 13.0556 76.5363 15.5773 76.5363 18.4033C76.5363 21.2584 75.9407 23.7945 74.7495 26.0119C73.5583 28.2292 71.8002 29.9755 69.4752 31.2509C67.1502 32.5117 64.287 33.1421 60.8857 33.1421H49.9281V26.5119H59.8093C61.7898 26.5119 63.4116 26.164 64.6745 25.4684C65.9375 24.7728 66.8704 23.8163 67.4732 22.5989C68.0903 21.3815 68.3988 19.983 68.3988 18.4033C68.3988 16.8237 68.0903 15.4324 67.4732 14.2295C66.8704 13.0267 65.9303 12.0919 64.653 11.4252C63.3901 10.7441 61.7611 10.4035 59.7662 10.4035H52.4468V48.1853H44.4601Z" fill="white"/>
<path d="M119.705 3.66455V48.1853H112.601L91.8263 17.8599H91.4604V48.1853H83.4736V3.66455H90.6208L111.373 34.0117H111.761V3.66455H119.705Z" fill="white"/>
<path d="M159.692 0C145.028 0 133.141 11.8867 133.141 26.5514V48.8591H155.449C170.111 48.8591 182 36.9724 182 22.3077V0H159.692ZM168.779 28.0816H161.22V35.6412H153.916V28.0816H146.359V20.7748H153.918V13.2179H161.225L161.236 20.7775H168.782V28.0816H168.779Z" fill="url(#paint0_linear_0_1)"/>
<path opacity="0.3" d="M133.141 26.5514V48.8591L153.917 28.0843H146.36V20.7748H153.92V13.2179H161.227L161.238 20.764L182 0H159.694C145.028 0 133.141 11.8867 133.141 26.5514Z" fill="#DCFFF8"/>
<path d="M9.94 71.34H4.38L3.46 74H0.52L5.54 60.02H8.8L13.82 74H10.86L9.94 71.34ZM9.18 69.1L7.16 63.26L5.14 69.1H9.18ZM14.9764 68.42C14.9764 67.3 15.1964 66.3067 15.6364 65.44C16.0897 64.5733 16.7031 63.9067 17.4764 63.44C18.2497 62.9733 19.1097 62.74 20.0564 62.74C20.7764 62.74 21.4631 62.9 22.1164 63.22C22.7697 63.5267 23.2897 63.94 23.6764 64.46V59.2H26.5164V74H23.6764V72.36C23.3297 72.9067 22.8431 73.3467 22.2164 73.68C21.5897 74.0133 20.8631 74.18 20.0364 74.18C19.1031 74.18 18.2497 73.94 17.4764 73.46C16.7031 72.98 16.0897 72.3067 15.6364 71.44C15.1964 70.56 14.9764 69.5533 14.9764 68.42ZM23.6964 68.46C23.6964 67.78 23.5631 67.2 23.2964 66.72C23.0297 66.2267 22.6697 65.8533 22.2164 65.6C21.7631 65.3333 21.2764 65.2 20.7564 65.2C20.2364 65.2 19.7564 65.3267 19.3164 65.58C18.8764 65.8333 18.5164 66.2067 18.2364 66.7C17.9697 67.18 17.8364 67.7533 17.8364 68.42C17.8364 69.0867 17.9697 69.6733 18.2364 70.18C18.5164 70.6733 18.8764 71.0533 19.3164 71.32C19.7697 71.5867 20.2497 71.72 20.7564 71.72C21.2764 71.72 21.7631 71.5933 22.2164 71.34C22.6697 71.0733 23.0297 70.7 23.2964 70.22C23.5631 69.7267 23.6964 69.14 23.6964 68.46ZM43.0111 62.76C44.3711 62.76 45.4644 63.18 46.2911 64.02C47.1311 64.8467 47.5511 66.0067 47.5511 67.5V74H44.7511V67.88C44.7511 67.0133 44.5311 66.3533 44.0911 65.9C43.6511 65.4333 43.0511 65.2 42.2911 65.2C41.5311 65.2 40.9244 65.4333 40.4711 65.9C40.0311 66.3533 39.8111 67.0133 39.8111 67.88V74H37.0111V67.88C37.0111 67.0133 36.7911 66.3533 36.3511 65.9C35.9111 65.4333 35.3111 65.2 34.5511 65.2C33.7778 65.2 33.1644 65.4333 32.7111 65.9C32.2711 66.3533 32.0511 67.0133 32.0511 67.88V74H29.2511V62.92H32.0511V64.26C32.4111 63.7933 32.8711 63.4267 33.4311 63.16C34.0044 62.8933 34.6311 62.76 35.3111 62.76C36.1778 62.76 36.9511 62.9467 37.6311 63.32C38.3111 63.68 38.8378 64.2 39.2111 64.88C39.5711 64.24 40.0911 63.7267 40.7711 63.34C41.4644 62.9533 42.2111 62.76 43.0111 62.76ZM51.6281 61.6C51.1348 61.6 50.7215 61.4467 50.3881 61.14C50.0681 60.82 49.9081 60.4267 49.9081 59.96C49.9081 59.4933 50.0681 59.1067 50.3881 58.8C50.7215 58.48 51.1348 58.32 51.6281 58.32C52.1215 58.32 52.5281 58.48 52.8481 58.8C53.1815 59.1067 53.3481 59.4933 53.3481 59.96C53.3481 60.4267 53.1815 60.82 52.8481 61.14C52.5281 61.4467 52.1215 61.6 51.6281 61.6ZM53.0081 62.92V74H50.2081V62.92H53.0081ZM61.9145 62.76C63.2345 62.76 64.3012 63.18 65.1145 64.02C65.9279 64.8467 66.3345 66.0067 66.3345 67.5V74H63.5345V67.88C63.5345 67 63.3145 66.3267 62.8745 65.86C62.4345 65.38 61.8345 65.14 61.0745 65.14C60.3012 65.14 59.6879 65.38 59.2345 65.86C58.7945 66.3267 58.5745 67 58.5745 67.88V74H55.7745V62.92H58.5745V64.3C58.9479 63.82 59.4212 63.4467 59.9945 63.18C60.5812 62.9 61.2212 62.76 61.9145 62.76Z" fill="white"/>
<defs>
<linearGradient id="paint0_linear_0_1" x1="157.569" y1="0" x2="157.569" y2="48.8569" gradientUnits="userSpaceOnUse">
<stop stop-color="#14B0B6"/>
<stop offset="0.8166" stop-color="#86CDD3"/>
</linearGradient>
</defs>
</svg>
