<svg width="110" height="44" viewBox="0 0 110 44" fill="none" xmlns="http://www.w3.org/2000/svg">
<path d="M19.0866 8.81818H23.8295V25.9233C23.8295 27.7983 23.3864 29.4474 22.5 30.8707C21.6222 32.294 20.3864 33.4062 18.7926 34.2074C17.1989 35 15.3366 35.3963 13.206 35.3963C11.0668 35.3963 9.20028 35 7.60653 34.2074C6.01278 33.4062 4.77699 32.294 3.89915 30.8707C3.02131 29.4474 2.58239 27.7983 2.58239 25.9233V8.81818H7.32528V25.527C7.32528 26.6179 7.56392 27.5895 8.04119 28.4418C8.52699 29.294 9.20881 29.9631 10.0866 30.4489C10.9645 30.9261 12.0043 31.1648 13.206 31.1648C14.4077 31.1648 15.4474 30.9261 16.3253 30.4489C17.2116 29.9631 17.8935 29.294 18.3707 28.4418C18.848 27.5895 19.0866 26.6179 19.0866 25.527V8.81818ZM28.9847 35V8.81818H38.8029C40.8143 8.81818 42.5018 9.19318 43.8654 9.94318C45.2376 10.6932 46.2731 11.7244 46.9719 13.0369C47.6793 14.3409 48.033 15.8239 48.033 17.4858C48.033 19.1648 47.6793 20.6562 46.9719 21.9602C46.2646 23.2642 45.2205 24.2912 43.8398 25.0412C42.4592 25.7827 40.7589 26.1534 38.739 26.1534H32.2319V22.2543H38.0998C39.2759 22.2543 40.239 22.0497 40.989 21.6406C41.739 21.2315 42.293 20.669 42.6509 19.9531C43.0174 19.2372 43.2006 18.4148 43.2006 17.4858C43.2006 16.5568 43.0174 15.7386 42.6509 15.0312C42.293 14.3239 41.7347 13.7741 40.9762 13.3821C40.2262 12.9815 39.2589 12.7812 38.0742 12.7812H33.7276V35H28.9847ZM73.6683 8.81818V35H69.4496L57.1129 17.1662H56.8956V35H52.1527V8.81818H56.397L68.7209 26.6648H68.951V8.81818H73.6683Z" fill="#23776E"/>
<path d="M96.7594 7C88.0553 7 81 14.0553 81 22.7594V35.9999H94.2406C102.943 35.9999 110 28.9447 110 20.2406V7H96.7594ZM102.153 23.6676H97.666V28.1546H93.3307V23.6676H88.8454V19.3307H93.3323V14.8454H97.6692L97.6756 19.3323H102.155V23.6676H102.153Z" fill="url(#paint0_linear_15_859)"/>
<path opacity="0.3" d="M81 22.7594V35.9999L93.3314 23.6692H88.8458V19.3307H93.333V14.8454H97.6701L97.6765 19.3243L110 7H96.7603C88.0556 7 81 14.0553 81 22.7594Z" fill="#DCFFF8"/>
<defs>
<linearGradient id="paint0_linear_15_859" x1="95.4993" y1="7" x2="95.4993" y2="35.9987" gradientUnits="userSpaceOnUse">
<stop stop-color="#14B0B6"/>
<stop offset="0.8166" stop-color="#86CDD3"/>
</linearGradient>
</defs>
</svg>
