<svg width="182" height="49" viewBox="0 0 182 49" fill="none" xmlns="http://www.w3.org/2000/svg">
<path d="M27.7922 3.66455H35.779V32.7508C35.779 35.9392 35.0327 38.7435 33.5401 41.1637C32.0619 43.5839 29.9809 45.4752 27.2971 46.8375C24.6133 48.1853 21.4775 48.8592 17.8895 48.8592C14.2872 48.8592 11.1442 48.1853 8.46038 46.8375C5.7766 45.4752 3.69559 43.5839 2.21735 41.1637C0.739118 38.7435 0 35.9392 0 32.7508V3.66455H7.98677V32.077C7.98677 33.932 8.38862 35.5841 9.19232 37.0334C10.0104 38.4826 11.1585 39.6203 12.6368 40.4463C14.115 41.2579 15.8659 41.6637 17.8895 41.6637C19.9131 41.6637 21.664 41.2579 23.1423 40.4463C24.6348 39.6203 25.783 38.4826 26.5867 37.0334C27.3904 35.5841 27.7922 33.932 27.7922 32.077V3.66455Z" fill="white"/>
<path d="M44.4601 48.1853V3.66455H60.9933C64.3803 3.66455 67.222 4.30222 69.5183 5.57755C71.8289 6.85288 73.5727 8.60647 74.7495 10.8383C75.9407 13.0556 76.5363 15.5773 76.5363 18.4033C76.5363 21.2584 75.9407 23.7945 74.7495 26.0119C73.5583 28.2292 71.8002 29.9755 69.4752 31.2509C67.1502 32.5117 64.2871 33.1421 60.8857 33.1421H49.9281V26.5119H59.8093C61.7898 26.5119 63.4116 26.164 64.6745 25.4684C65.9375 24.7728 66.8704 23.8163 67.4732 22.5989C68.0903 21.3815 68.3988 19.983 68.3988 18.4033C68.3988 16.8237 68.0903 15.4324 67.4732 14.2295C66.8704 13.0267 65.9303 12.0919 64.653 11.4252C63.3901 10.7441 61.7611 10.4035 59.7662 10.4035H52.4468V48.1853H44.4601Z" fill="white"/>
<path d="M119.705 3.66455V48.1853H112.601L91.8263 17.8599H91.4604V48.1853H83.4736V3.66455H90.6208L111.373 34.0117H111.761V3.66455H119.705Z" fill="white"/>
<path d="M159.692 0C145.028 0 133.141 11.8867 133.141 26.5514V48.8591H155.449C170.111 48.8591 182 36.9724 182 22.3077V0H159.692ZM168.779 28.0816H161.22V35.6412H153.916V28.0816H146.359V20.7748H153.918V13.2179H161.225L161.236 20.7775H168.782V28.0816H168.779Z" fill="url(#paint0_linear_18_407)"/>
<path opacity="0.3" d="M133.141 26.5514V48.8591L153.917 28.0843H146.359V20.7748H153.919V13.2179H161.227L161.237 20.764L182 0H159.694C145.028 0 133.141 11.8867 133.141 26.5514Z" fill="#DCFFF8"/>
<defs>
<linearGradient id="paint0_linear_18_407" x1="157.569" y1="0" x2="157.569" y2="48.8569" gradientUnits="userSpaceOnUse">
<stop stop-color="#14B0B6"/>
<stop offset="0.8166" stop-color="#86CDD3"/>
</linearGradient>
</defs>
</svg>
