<svg width="24" height="21" viewBox="0 0 24 21" fill="none" xmlns="http://www.w3.org/2000/svg">
<path d="M12.7501 4.09248C12.7501 3.67827 12.4143 3.34248 12.0001 3.34248C11.5859 3.34248 11.2501 3.67827 11.2501 4.09248H12.7501ZM11.2501 18.8693C11.2501 19.2836 11.5859 19.6193 12.0001 19.6193C12.4143 19.6193 12.7501 19.2836 12.7501 18.8693H11.2501ZM3.32727 0.937715L3.40793 0.192064H3.40793L3.32727 0.937715ZM11.26 3.44027L11.6778 2.81741V2.81741L11.26 3.44027ZM3.32727 16.8677L3.40793 16.122H3.40793L3.32727 16.8677ZM11.26 19.3702L11.6778 18.7474H11.6778L11.26 19.3702ZM20.6729 0.937715L20.5922 0.192064L20.6729 0.937715ZM12.7402 3.44027L12.3224 2.81741V2.81741L12.7402 3.44027ZM20.6729 16.8677L20.5922 16.122L20.6729 16.8677ZM12.7402 19.3702L12.3224 18.7474H12.3224L12.7402 19.3702ZM4.52673 5.63339C4.117 5.57265 3.7356 5.85556 3.67486 6.26529C3.61411 6.67503 3.89703 7.05643 4.30676 7.11717L4.52673 5.63339ZM8.48972 8.15014C8.87817 8.29394 9.30964 8.0956 9.45344 7.70715C9.59723 7.3187 9.3989 6.88722 9.01045 6.74343L8.48972 8.15014ZM4.52673 9.78154C4.117 9.72079 3.7356 10.0037 3.67486 10.4134C3.61411 10.8232 3.89703 11.2046 4.30676 11.2653L4.52673 9.78154ZM6.40734 11.6711C6.80998 11.7684 7.21521 11.5208 7.31245 11.1182C7.4097 10.7155 7.16213 10.3103 6.75949 10.2131L6.40734 11.6711ZM11.2501 4.09248V18.8693H12.7501V4.09248H11.2501ZM3.24661 1.68336C5.6109 1.93911 8.69357 2.62188 10.8422 4.06312L11.6778 2.81741C9.22504 1.17217 5.85013 0.456237 3.40793 0.192064L3.24661 1.68336ZM3.24661 17.6133C5.6109 17.8691 8.69357 18.5519 10.8422 19.9931L11.6778 18.7474C9.22504 17.1021 5.85013 16.3862 3.40793 16.122L3.24661 17.6133ZM0.416748 2.93288V14.6149H1.91675V2.93288H0.416748ZM3.40793 16.122C2.54125 16.0283 1.91675 15.3492 1.91675 14.6149H0.416748C0.416748 16.2266 1.7345 17.4498 3.24661 17.6133L3.40793 16.122ZM3.40793 0.192064C1.74063 0.0117123 0.416748 1.34897 0.416748 2.93288H1.91675C1.91675 2.17068 2.53512 1.6064 3.24661 1.68336L3.40793 0.192064ZM20.5922 0.192064C18.15 0.456237 14.7751 1.17217 12.3224 2.81741L13.158 4.06312C15.3066 2.62188 18.3893 1.93911 20.7535 1.68336L20.5922 0.192064ZM20.5922 16.122C18.15 16.3862 14.7751 17.1021 12.3224 18.7474L13.158 19.9931C15.3066 18.5519 18.3893 17.8691 20.7535 17.6133L20.5922 16.122ZM22.0834 2.93288V14.6149H23.5834V2.93288H22.0834ZM20.7535 17.6133C22.2657 17.4498 23.5834 16.2266 23.5834 14.6149H22.0834C22.0834 15.3492 21.4589 16.0283 20.5922 16.122L20.7535 17.6133ZM20.7535 1.68336C21.465 1.6064 22.0834 2.17068 22.0834 2.93288H23.5834C23.5834 1.34897 22.2595 0.0117123 20.5922 0.192064L20.7535 1.68336ZM10.8422 19.9931C11.5371 20.4592 12.4631 20.4592 13.158 19.9931L12.3224 18.7474C12.133 18.8745 11.8672 18.8745 11.6778 18.7474L10.8422 19.9931ZM10.8422 4.06312C11.5371 4.52925 12.4631 4.52925 13.158 4.06312L12.3224 2.81741C12.133 2.94448 11.8672 2.94448 11.6778 2.81741L10.8422 4.06312ZM4.30676 7.11717C5.64261 7.31521 7.11904 7.64275 8.48972 8.15014L9.01045 6.74343C7.51631 6.19034 5.9334 5.84193 4.52673 5.63339L4.30676 7.11717ZM4.30676 11.2653C4.98011 11.3651 5.69106 11.4981 6.40734 11.6711L6.75949 10.2131C5.99441 10.0283 5.23894 9.88712 4.52673 9.78154L4.30676 11.2653Z" fill="white"/>
</svg>
