<svg width="29" height="27" viewBox="0 0 29 27" fill="none" xmlns="http://www.w3.org/2000/svg">
<path d="M23.799 21.0623C23.4946 20.7814 23.0201 20.8003 22.7392 21.1047C22.4582 21.4091 22.4772 21.8836 22.7816 22.1645L23.799 21.0623ZM27.3653 26.3956C27.6696 26.6766 28.1441 26.6576 28.4251 26.3532C28.706 26.0489 28.6871 25.5744 28.3827 25.2934L27.3653 26.3956ZM27.3144 13.1512C27.3144 6.3389 21.3507 0.916748 14.1229 0.916748V2.41675C20.6376 2.41675 25.8144 7.27812 25.8144 13.1512H27.3144ZM14.1229 0.916748C6.89508 0.916748 0.931396 6.3389 0.931396 13.1512H2.4314C2.4314 7.27812 7.6082 2.41675 14.1229 2.41675V0.916748ZM0.931396 13.1512C0.931396 19.9635 6.89508 25.3856 14.1229 25.3856V23.8856C7.6082 23.8856 2.4314 19.0243 2.4314 13.1512H0.931396ZM14.1229 25.3856C21.3507 25.3856 27.3144 19.9635 27.3144 13.1512H25.8144C25.8144 19.0243 20.6376 23.8856 14.1229 23.8856V25.3856ZM22.7816 22.1645L27.3653 26.3956L28.3827 25.2934L23.799 21.0623L22.7816 22.1645Z" fill="#F8F8F8"/>
</svg>
