<svg width="22" height="19" viewBox="0 0 22 19" fill="none" xmlns="http://www.w3.org/2000/svg">
<path d="M1.25 3.43533C0.835786 3.43533 0.5 3.77112 0.5 4.18533C0.5 4.59954 0.835786 4.93533 1.25 4.93533V3.43533ZM6.66667 4.93533C7.08088 4.93533 7.41667 4.59954 7.41667 4.18533C7.41667 3.77112 7.08088 3.43533 6.66667 3.43533V4.93533ZM20.75 4.93533C21.1642 4.93533 21.5 4.59954 21.5 4.18533C21.5 3.77112 21.1642 3.43533 20.75 3.43533V4.93533ZM15.3333 13.8057C14.9191 13.8057 14.5833 14.1415 14.5833 14.5557C14.5833 14.9699 14.9191 15.3057 15.3333 15.3057V13.8057ZM20.75 15.3057C21.1642 15.3057 21.5 14.9699 21.5 14.5557C21.5 14.1415 21.1642 13.8057 20.75 13.8057V15.3057ZM1.25 13.8057C0.835786 13.8057 0.5 14.1415 0.5 14.5557C0.5 14.9699 0.835786 15.3057 1.25 15.3057V13.8057ZM13.1667 1.07422V1.82422V1.07422ZM15.3333 1.07422V0.324219V1.07422ZM15.3333 7.29644V6.54644V7.29644ZM13.1667 7.29644V8.04644V7.29644ZM6.66667 11.4446V12.1946V11.4446ZM8.83333 11.4446V10.6946V11.4446ZM8.83333 17.6668V16.9168V17.6668ZM6.66667 17.6668V18.4168V17.6668ZM1.25 4.93533H6.66667V3.43533H1.25V4.93533ZM18.5833 4.93533H20.75V3.43533H18.5833V4.93533ZM15.3333 15.3057H20.75V13.8057H15.3333V15.3057ZM1.25 15.3057H3.41667V13.8057H1.25V15.3057ZM13.1667 1.82422L15.3333 1.82422V0.324219L13.1667 0.324219V1.82422ZM15.3333 6.54644H13.1667V8.04644H15.3333V6.54644ZM13.1667 6.54644C11.7547 6.54644 10.6667 5.4588 10.6667 4.18533L9.16667 4.18533C9.16667 6.3483 10.9887 8.04644 13.1667 8.04644V6.54644ZM17.8333 4.18533C17.8333 5.4588 16.7453 6.54644 15.3333 6.54644V8.04644C17.5113 8.04644 19.3333 6.3483 19.3333 4.18533L17.8333 4.18533ZM15.3333 1.82422C16.7453 1.82422 17.8333 2.91186 17.8333 4.18533L19.3333 4.18533C19.3333 2.02236 17.5113 0.324219 15.3333 0.324219V1.82422ZM13.1667 0.324219C10.9887 0.324219 9.16667 2.02236 9.16667 4.18533L10.6667 4.18533C10.6667 2.91186 11.7547 1.82422 13.1667 1.82422V0.324219ZM6.66667 12.1946H8.83333V10.6946H6.66667V12.1946ZM8.83333 16.9168H6.66667V18.4168H8.83333V16.9168ZM6.66667 16.9168C5.25475 16.9168 4.16667 15.8292 4.16667 14.5557H2.66667C2.66667 16.7187 4.48873 18.4168 6.66667 18.4168V16.9168ZM11.3333 14.5557C11.3333 15.8292 10.2453 16.9168 8.83333 16.9168V18.4168C11.0113 18.4168 12.8333 16.7187 12.8333 14.5557H11.3333ZM8.83333 12.1946C10.2453 12.1946 11.3333 13.2822 11.3333 14.5557H12.8333C12.8333 12.3927 11.0113 10.6946 8.83333 10.6946V12.1946ZM6.66667 10.6946C4.48874 10.6946 2.66667 12.3927 2.66667 14.5557H4.16667C4.16667 13.2822 5.25475 12.1946 6.66667 12.1946V10.6946Z" fill="white"/>
</svg>
