<svg width="47" height="47" viewBox="0 0 47 47" fill="none" xmlns="http://www.w3.org/2000/svg">
<path fill-rule="evenodd" clip-rule="evenodd" d="M10.4428 9.22519L20.3095 4.62996C22.3513 3.67901 24.682 3.67901 26.7239 4.62996L36.5514 9.20696C39.4253 10.5454 41.3117 13.5536 41.1103 16.8424C40.3379 29.4572 36.8962 35.1599 27.5927 41.7757C25.1374 43.5217 21.8986 43.5174 19.4415 41.7743C10.1665 35.1942 6.59706 29.5711 5.88707 16.7981C5.70547 13.531 7.58883 10.5544 10.4428 9.22519ZM30.4803 20.5506C31.0144 19.9401 30.9526 19.0122 30.3421 18.4781C29.7316 17.9439 28.8037 18.0058 28.2696 18.6163L22.6494 25.0394C22.4768 25.2366 22.1797 25.263 21.9751 25.0993L18.5425 22.3532C17.909 21.8465 16.9848 21.9492 16.478 22.5826C15.9713 23.216 16.074 24.1403 16.7074 24.647L20.14 27.3931C21.5721 28.5388 23.6524 28.354 24.86 26.9737L30.4803 20.5506Z" fill="#499189"/>
</svg>
